# xmcd
# 
# Track frame offsets:
#     150
#     22225
#     44537
#     63732
#     80295
#     96652
#     115210
#     134120
#     158082
#     184910
#     204332
#     220977
#     238972
#     266347
#     293670
# 
# Disc length: 4300
# 
# Revision: 134
# Processed by: cddbd v1.5.2PL0 Copyright (c) Steve Scherf et al.
# Submitted via: fre:ac v1.0.17
# 
DISCID=ec10ca0f
DTITLE=MICHAEL JACKSON - HISTORY - BEGINS
DYEAR=1995
DGENRE=Pop
TTITLE0=Billie Jean
TTITLE1=The Way You Make Me Feel
TTITLE2=Black Or White
TTITLE3=Rock With You
TTITLE4=She's Out Of My Life
TTITLE5=Bad
TTITLE6=I Just Can't Stop Loving You
TTITLE7=Man In The Mirror
TTITLE8=Thriller
TTITLE9=Beat It
TTITLE10=The Girl Is Mine
TTITLE11=Remember The Time
TTITLE12=Don't Stop 'Til You Get Enough
TTITLE13=Wanna Be Startin' Somethin'
TTITLE14=Heal The World
EXTD=MediaType: Audio CD Producer: Unknown
EXTT0=
EXTT1=
EXTT2=
EXTT3=
EXTT4=
EXTT5=
EXTT6=
EXTT7=
EXTT8=
EXTT9=
EXTT10=
EXTT11=
EXTT12=
EXTT13=
EXTT14=
PLAYORDER=
